<?xml version="1.0" standalone="no"?><!DOCTYPE svg PUBLIC "-//W3C//DTD SVG 20010904//EN" "http://www.w3.org/TR/2001/REC-SVG-20010904/DTD/svg10.dtd"><svg version="1.0" xmlns="http://www.w3.org/2000/svg" width="170.000000pt" height="170.000000pt" viewBox="0 0 170.000000 170.000000" preserveAspectRatio="xMidYMid meet"><metadata>
Created by potrace 1.14, written by Peter Selinger 2001-2017
</metadata><g transform="translate(0.000000,170.000000) scale(0.100000,-0.100000)" fill="#000000" stroke="none"><path d="M1099 1680 c-72 -38 -166 -175 -208 -303 -13 -41 -3 -67 25 -67 17 0
18 -12 4 -26 -16 -16 -1 -44 23 -44 11 0 43 15 71 34 140 92 229 122 328 112
125 -13 123 -14 126 16 3 25 -1 28 -49 42 -29 9 -77 16 -107 16 -54 0 -159
-24 -176 -41 -6 -5 -16 -9 -24 -9 -7 0 -29 -12 -48 -26 -19 -15 -37 -24 -40
-22 -10 10 209 198 231 198 31 0 58 23 54 46 -3 14 -14 20 -42 22 -40 3 -79
-15 -132 -65 -16 -15 -51 -48 -78 -72 -26 -24 -50 -42 -53 -39 -6 7 30 70 68
119 15 20 46 44 67 52 46 19 55 30 46 57 -8 25 -39 25 -86 0z" /><path d="M295 1384 c-51 -4 -68 -8 -191 -44 -75 -22 -111 -48 -100 -75 10 -27
34 -28 83 -4 116 56 381 76 475 35 20 -9 39 -19 41 -23 3 -5 -48 -9 -112 -10
-140 -3 -254 -33 -259 -69 -6 -39 19 -46 84 -24 45 16 85 21 169 21 61 1 124
-1 140 -3 26 -3 30 0 33 25 2 15 8 27 13 27 5 0 9 11 9 25 0 32 -40 71 -98 96
-45 20 -186 31 -287 23z" /><path d="M485 1163 c-11 -3 -24 -9 -29 -14 -6 -5 -16 -9 -22 -9 -24 0 -134
-72 -169 -111 -29 -33 -34 -43 -25 -59 14 -26 45 -26 63 0 40 57 177 128 256
132 57 3 80 21 68 52 -5 12 -19 16 -64 15 -32 -1 -67 -3 -78 -6z" /><path d="M935 1121 c-29 -12 -51 -40 -64 -83 -7 -21 -16 -40 -21 -43 -5 -3
-37 8 -71 26 -72 36 -172 55 -211 40 -91 -34 -142 -149 -117 -261 15 -69 58
-125 147 -192 109 -82 221 -85 301 -9 32 30 43 34 98 37 111 6 196 64 214 145
29 127 -46 266 -177 329 -43 21 -67 24 -99 11z m85 -82 c72 -43 108 -91 124
-162 6 -25 5 -27 -13 -18 -35 19 -68 12 -100 -20 -17 -17 -31 -37 -31 -45 0
-18 19 -57 33 -65 19 -13 -5 -29 -41 -29 l-37 0 -2 69 c-1 38 -9 85 -17 106
-20 46 -20 92 -2 136 24 57 33 60 86 28z m-310 -61 c60 -21 137 -76 154 -112
23 -48 21 -52 -24 -48 -36 4 -44 0 -75 -33 -19 -20 -35 -47 -35 -60 0 -23 44
-78 69 -86 23 -8 2 -29 -28 -29 -75 0 -196 84 -236 163 -14 28 -25 62 -25 76
0 40 24 98 51 127 21 23 29 25 69 20 24 -3 60 -12 80 -18z" /><path d="M1485 906 c-25 -32 -32 -36 -74 -36 -26 0 -52 5 -57 10 -18 18 -44 0
-44 -31 0 -34 23 -49 75 -49 44 0 51 -16 35 -78 -51 -187 -188 -346 -375 -433
-42 -20 -66 -24 -156 -24 -93 0 -111 3 -154 25 -71 36 -194 147 -239 214 -34
51 -38 61 -27 78 10 16 9 23 -5 39 -23 25 -32 24 -60 -6 -19 -21 -32 -26 -67
-24 -50 3 -67 -5 -67 -30 0 -24 47 -44 93 -40 33 3 38 0 76 -56 40 -60 123
-140 210 -203 70 -51 166 -76 265 -69 85 5 99 9 212 63 188 90 342 303 373
514 3 25 19 65 35 88 23 34 27 47 19 60 -18 29 -40 25 -68 -12z" /><path d="M1060 602 c-44 -35 -2 -82 43 -48 22 17 22 43 -2 56 -15 7 -24 5 -41
-8z" /><path d="M962 543 c-13 -24 3 -53 29 -53 24 0 36 27 22 49 -15 23 -40 25 -51
4z" /></g></svg>